<?xml version="1.0" encoding="UTF-8" standalone="no"?>
<svg
   xmlns:dc="http://purl.org/dc/elements/1.1/"
   xmlns:cc="http://creativecommons.org/ns#"
   xmlns:rdf="http://www.w3.org/1999/02/22-rdf-syntax-ns#"
   xmlns:svg="http://www.w3.org/2000/svg"
   xmlns="http://www.w3.org/2000/svg"
   xmlns:sodipodi="http://sodipodi.sourceforge.net/DTD/sodipodi-0.dtd"
   xmlns:inkscape="http://www.inkscape.org/namespaces/inkscape"
   inkscape:export-ydpi="128"
   inkscape:export-xdpi="128"
   inkscape:export-filename="/Users/laittu1/Documents/koulu/tsoha/CandyTracker/static/imgs/ct_logo_400x400.png"
   sodipodi:docname="ct_logo.svg"
   inkscape:version="1.0beta2 (2b71d25, 2019-12-03)"
   id="svg8"
   version="1.1"
   viewBox="0 0 79.374998 79.375002"
   height="300"
   width="300">
  <defs
     id="defs2" />
  <sodipodi:namedview
     inkscape:window-maximized="0"
     inkscape:window-y="259"
     inkscape:window-x="367"
     inkscape:window-height="1015"
     inkscape:window-width="1792"
     inkscape:snap-bbox="true"
     units="px"
     showgrid="false"
     inkscape:document-rotation="0"
     inkscape:current-layer="g856"
     inkscape:document-units="mm"
     inkscape:cy="157.01618"
     inkscape:cx="199.11679"
     inkscape:zoom="2.3425257"
     inkscape:pageshadow="2"
     inkscape:pageopacity="0.0"
     borderopacity="1.0"
     bordercolor="#666666"
     pagecolor="#ffffff"
     id="base" />
  <metadata
     id="metadata5">
    <rdf:RDF>
      <cc:Work
         rdf:about="">
        <dc:format>image/svg+xml</dc:format>
        <dc:type
           rdf:resource="http://purl.org/dc/dcmitype/StillImage" />
        <dc:title></dc:title>
      </cc:Work>
    </rdf:RDF>
  </metadata>
  <g
     id="layer1"
     inkscape:groupmode="layer"
     inkscape:label="Layer 1">
    <g
       id="g856">
      <g
         transform="translate(-0.44431206,1.0660899)"
         id="g990">
        <g
           id="g940"
           transform="matrix(-0.5717323,0.50797894,0.50797894,0.5717323,38.095191,-17.537044)">
          <path
             transform="scale(0.26458333)"
             d="m 131.37891,289.26953 c -1.62892,-5.29676 -3.18248,-10.61146 -4.38672,-16.00976 -1.4628,-6.55735 -2.61303,-13.18932 -3.44922,-19.89649 -0.83619,-6.70716 -1.35879,-13.49067 -1.56836,-20.34766 -0.0198,-0.6466 0.0435,-1.313 0.0293,-1.96093 l -35.283207,25.95312 c 4.813201,19.23064 13.704847,34.72272 32.126957,41.47852 z"
             style="fill:#e0362b;fill-opacity:1;stroke:#f6f8fa;stroke-width:5.99811;stroke-linecap:round;stroke-linejoin:round;stroke-miterlimit:4;stroke-dasharray:none;stroke-opacity:1"
             id="path837"
             inkscape:connector-curvature="0" />
          <path
             transform="scale(0.26458333)"
             d="m 153.89844,272.70312 c -0.30625,-1.11236 -0.67929,-2.22248 -0.95899,-3.33593 -0.83808,-3.3364 -1.55875,-6.6776 -2.16601,-10.02344 -0.60726,-3.34584 -1.10244,-6.69596 -1.49024,-10.05078 -0.38779,-3.35482 -0.66796,-6.71284 -0.84765,-10.07617 -0.1797,-3.36334 -0.25924,-6.73213 -0.24219,-10.10352 0.017,-3.37138 0.12961,-6.74603 0.33203,-10.125 0.15844,-2.64477 0.41584,-5.29419 0.68164,-7.94336 l -27.20312,20.00977 c 0.0142,0.64793 -0.0491,1.31433 -0.0293,1.96093 0.20957,6.85699 0.73217,13.6405 1.56836,20.34766 0.83619,6.70717 1.98642,13.33914 3.44922,19.89649 1.20424,5.3983 2.7578,10.713 4.38672,16.00976 z"
             style="fill:#e0362b;fill-opacity:1;stroke:#f6f8fa;stroke-width:5.99811;stroke-linecap:round;stroke-linejoin:round;stroke-miterlimit:4;stroke-dasharray:none;stroke-opacity:1"
             id="path926"
             inkscape:connector-curvature="0" />
          <path
             transform="scale(0.26458333)"
             d="m 178.79297,189.2832 -29.58594,21.76172 c -0.2658,2.64917 -0.5232,5.29859 -0.68164,7.94336 -0.20242,3.37897 -0.31499,6.75362 -0.33203,10.125 -0.0171,3.37139 0.0625,6.74018 0.24219,10.10352 0.17969,3.36333 0.45986,6.72135 0.84765,10.07617 0.3878,3.35482 0.88298,6.70494 1.49024,10.05078 0.60726,3.34584 1.32793,6.68704 2.16601,10.02344 0.2797,1.11345 0.65274,2.22357 0.95899,3.33593 l 34.07812,-25.0664 c -1.54616,-5.08546 -3.05368,-10.18047 -4.20898,-15.35938 -1.4628,-6.55734 -2.61108,-13.18932 -3.44727,-19.89648 -0.83618,-6.70716 -1.35878,-13.48872 -1.56836,-20.3457 -0.0277,-0.90736 0.0578,-1.84198 0.041,-2.75196 z"
             style="fill:#e0362b;fill-opacity:1;stroke:#f6f8fa;stroke-width:5.99811;stroke-linecap:round;stroke-linejoin:round;stroke-miterlimit:4;stroke-dasharray:none;stroke-opacity:1"
             id="path924"
             inkscape:connector-curvature="0" />
          <path
             transform="scale(0.26458333)"
             d="m 210.48828,231.07812 c -0.24294,-0.89771 -0.54776,-1.79298 -0.77344,-2.6914 -0.83808,-3.3364 -1.55875,-6.6776 -2.16601,-10.02344 -0.60726,-3.34584 -1.10049,-6.69596 -1.48828,-10.05078 -0.3878,-3.35482 -0.66992,-6.71479 -0.84961,-10.07812 -0.1797,-3.36334 -0.25728,-6.73018 -0.24024,-10.10157 0.0171,-3.37138 0.12961,-6.74798 0.33203,-10.12695 0.17511,-2.92303 0.448,-5.84896 0.75391,-8.77734 l -27.26367,20.05468 c 0.0168,0.90998 -0.0687,1.8446 -0.041,2.75196 0.20958,6.85698 0.73218,13.63854 1.56836,20.3457 0.83619,6.70716 1.98447,13.33914 3.44727,19.89648 1.1553,5.17891 2.66282,10.27392 4.20898,15.35938 z"
             style="fill:#e0362b;fill-opacity:1;stroke:#f6f8fa;stroke-width:5.99811;stroke-linecap:round;stroke-linejoin:round;stroke-miterlimit:4;stroke-dasharray:none;stroke-opacity:1"
             id="path921"
             inkscape:connector-curvature="0" />
          <path
             transform="scale(0.26458333)"
             d="m 227.08008,153.28711 c -0.74995,0.71015 -1.45621,1.45849 -2.24805,2.13086 l -18.77539,13.81055 c -0.30591,2.92838 -0.5788,5.85431 -0.75391,8.77734 -0.20242,3.37897 -0.31498,6.75557 -0.33203,10.12695 -0.017,3.37139 0.0605,6.73823 0.24024,10.10157 0.17969,3.36333 0.46181,6.7233 0.84961,10.07812 0.38779,3.35482 0.88102,6.70494 1.48828,10.05078 0.60726,3.34584 1.32793,6.68704 2.16601,10.02344 0.22568,0.89842 0.5305,1.79369 0.77344,2.6914 l 42.26953,-31.09179 c -3.67091,-5.08139 -7.19842,-10.25456 -10.41992,-15.6211 -3.60523,-6.00576 -6.92833,-12.18984 -9.9707,-18.55273 -1.94194,-4.06143 -3.57449,-8.31846 -5.28711,-12.52539 z"
             style="fill:#e0362b;fill-opacity:1;stroke:#f6f8fa;stroke-width:5.99811;stroke-linecap:round;stroke-linejoin:round;stroke-miterlimit:4;stroke-dasharray:none;stroke-opacity:1"
             id="path919"
             inkscape:connector-curvature="0" />
          <path
             transform="scale(0.26458333)"
             d="m 272.71484,181.03125 c -0.0562,-0.0761 -0.12169,-0.14848 -0.17773,-0.22461 -2.15952,-2.934 -4.19895,-5.913 -6.125,-8.9375 -1.92605,-3.0245 -3.73982,-6.09432 -5.44336,-9.20508 -1.70354,-3.11076 -3.29708,-6.26426 -4.78906,-9.45703 -1.49198,-3.19277 -2.88246,-6.42478 -4.17383,-9.69531 -1.29137,-3.27053 -2.48422,-6.57783 -3.58594,-9.92188 -1.10171,-3.34405 -2.11214,-6.72534 -3.03515,-10.13867 -0.346,-1.27952 -0.62142,-2.58615 -0.94336,-3.875 -1.77692,12.84791 -7.87628,24.72927 -17.36133,33.71094 1.71262,4.20693 3.34517,8.46396 5.28711,12.52539 3.04237,6.36289 6.36547,12.54697 9.9707,18.55273 3.2215,5.36654 6.74901,10.53971 10.41992,15.6211 l 4.20117,-3.08985 c 5.85494,-4.75888 11.07172,-10.12064 15.75586,-15.86523 z"
             style="fill:#e0362b;fill-opacity:1;stroke:#f6f8fa;stroke-width:5.99811;stroke-linecap:round;stroke-linejoin:round;stroke-miterlimit:4;stroke-dasharray:none;stroke-opacity:1"
             id="path916"
             inkscape:connector-curvature="0" />
          <path
             transform="scale(0.26458333)"
             d="m 243.4082,98.759766 c 0.97613,4.185584 1.63673,8.493484 1.63672,12.978514 -1e-5,2.64388 -0.24593,5.25243 -0.60351,7.83789 0.32194,1.28885 0.59736,2.59548 0.94336,3.875 0.92301,3.41333 1.93344,6.79462 3.03515,10.13867 1.10172,3.34405 2.29457,6.65135 3.58594,9.92188 1.29137,3.27053 2.68185,6.50254 4.17383,9.69531 1.49198,3.19277 3.08552,6.34627 4.78906,9.45703 1.70354,3.11076 3.51731,6.18058 5.44336,9.20508 1.92605,3.0245 3.96548,6.0035 6.125,8.9375 0.056,0.0761 0.12154,0.14854 0.17773,0.22461 15.8273,-19.41043 24.76757,-43.79908 24.76758,-69.29297 1e-5,-2.92111 -0.14645,-5.8053 -0.37109,-8.66797 -5.71752,0.27516 -11.43157,0.4405 -17.14063,0.25 -6.71478,-0.22406 -13.42386,-0.77044 -20.12695,-1.63867 -5.48326,-0.71023 -10.96011,-1.780596 -16.43555,-2.921874 z"
             style="fill:#e0362b;fill-opacity:1;stroke:#f6f8fa;stroke-width:5.99811;stroke-linecap:round;stroke-linejoin:round;stroke-miterlimit:4;stroke-dasharray:none;stroke-opacity:1"
             id="path914"
             inkscape:connector-curvature="0" />
          <path
             transform="scale(0.26458333)"
             d="m 291.60156,76.982422 c -2.9854,0.153591 -5.96012,0.262053 -8.9082,0.242187 -3.43997,-0.02318 -6.85472,-0.161128 -10.24609,-0.410156 -3.39138,-0.249028 -6.76031,-0.608507 -10.10547,-1.072265 -3.34517,-0.463759 -6.6674,-1.031846 -9.96875,-1.699219 -3.30136,-0.667373 -6.58187,-1.435051 -9.8418,-2.294922 -3.25993,-0.859871 -6.4998,-1.812264 -9.7207,-2.853516 -3.2209,-1.041252 -6.42316,-2.171296 -9.60743,-3.382812 l -0.16796,1.291015 c 10.07583,7.909723 17.36849,19.073696 20.37304,31.957032 5.47544,1.141278 10.95229,2.211644 16.43555,2.921874 6.70309,0.86823 13.41217,1.41461 20.12695,1.63867 5.70906,0.1905 11.42311,0.0252 17.14063,-0.25 -0.7129,-9.084597 -2.71357,-17.766075 -5.50977,-26.087888 z"
             style="fill:#e0362b;fill-opacity:1;stroke:#f6f8fa;stroke-width:5.99811;stroke-linecap:round;stroke-linejoin:round;stroke-miterlimit:4;stroke-dasharray:none;stroke-opacity:1"
             id="path891"
             inkscape:connector-curvature="0" />
          <path
             transform="scale(0.26458333)"
             d="m 242.97266,17.019531 c -2.59594,4.608441 -5.22202,9.197198 -8.15235,13.589844 -3.72843,5.589037 -7.72632,11.004453 -11.99609,16.244141 -3.57955,4.392672 -7.45991,8.59114 -11.41992,12.738281 4.19606,1.907453 8.04746,4.397901 11.63086,7.210937 l 0.16796,-1.291015 c 3.18427,1.211516 6.38653,2.34156 9.60743,3.382812 3.2209,1.041252 6.46077,1.993645 9.7207,2.853516 3.25993,0.859871 6.54044,1.627549 9.8418,2.294922 3.30135,0.667373 6.62358,1.23546 9.96875,1.699219 3.34516,0.463758 6.71409,0.823237 10.10547,1.072265 3.39137,0.249028 6.80612,0.386976 10.24609,0.410156 2.94808,0.01987 5.9228,-0.0886 8.9082,-0.242187 -8.52228,-25.363308 -25.87774,-46.666253 -48.6289,-59.962891 z"
             style="fill:#e0362b;fill-opacity:1;stroke:#f6f8fa;stroke-width:5.99811;stroke-linecap:round;stroke-linejoin:round;stroke-miterlimit:4;stroke-dasharray:none;stroke-opacity:1"
             id="path889"
             inkscape:connector-curvature="0" />
          <path
             transform="scale(0.26458333)"
             d="M 218.75781,6.515625 C 208.91532,3.618354 198.52476,1.998204 187.74414,1.9980469 164.29625,1.9977712 141.46475,9.5078821 122.5957,23.427734 c 4.52706,17.15525 12.88348,32.248542 32.12891,41.478516 6.67686,-4.707778 14.27509,-7.791469 22.2168,-9.320312 1.25592,-1.012504 2.54436,-1.992938 3.77148,-3.033204 2.58207,-2.188905 5.10035,-4.440165 7.54883,-6.757812 2.44847,-2.317648 4.82807,-4.70197 7.13476,-7.15625 2.3067,-2.45428 4.54055,-4.979323 6.69727,-7.578125 2.15672,-2.598803 4.23582,-5.270269 6.23437,-8.021485 1.99856,-2.751215 3.91584,-5.580668 5.74805,-8.492187 1.63749,-2.602092 3.18321,-5.2951495 4.68164,-8.03125 z"
             style="fill:#e0362b;fill-opacity:1;stroke:#f6f8fa;stroke-width:5.99811;stroke-linecap:round;stroke-linejoin:round;stroke-miterlimit:4;stroke-dasharray:none;stroke-opacity:1"
             id="path886"
             inkscape:connector-curvature="0" />
          <path
             transform="scale(0.26458333)"
             d="m 218.75781,6.515625 c -1.49843,2.7361005 -3.04415,5.429158 -4.68164,8.03125 -1.83221,2.911519 -3.74949,5.740972 -5.74805,8.492187 -1.99855,2.751216 -4.07765,5.422682 -6.23437,8.021485 -2.15672,2.598802 -4.39057,5.123845 -6.69727,7.578125 -2.30669,2.45428 -4.68629,4.838602 -7.13476,7.15625 -2.44848,2.317647 -4.96676,4.568907 -7.54883,6.757812 -1.22712,1.040266 -2.51556,2.0207 -3.77148,3.033204 3.55151,-0.683696 7.14927,-1.150322 10.80273,-1.150391 8.44695,2.67e-4 16.44094,1.874526 23.66016,5.15625 3.96001,-4.147141 7.84037,-8.345609 11.41992,-12.738281 4.26977,-5.239688 8.26766,-10.655104 11.99609,-16.244141 2.93033,-4.392646 5.55641,-8.981403 8.15235,-13.589844 -7.55488,-4.415357 -15.64928,-7.982514 -24.21485,-10.503906 z"
             style="fill:#e0362b;fill-opacity:1;stroke:#f6f8fa;stroke-width:5.99811;stroke-linecap:round;stroke-linejoin:round;stroke-miterlimit:4;stroke-dasharray:none;stroke-opacity:1"
             id="path884"
             inkscape:connector-curvature="0" />
        </g>
        <g
           id="g964"
           transform="matrix(-0.45117899,0.61754186,-0.61754186,-0.45117899,96.183944,35.255976)">
          <path
             id="path942"
             style="fill:#e0362b;fill-opacity:1;stroke:#f6f8fa;stroke-width:5.99811;stroke-linecap:round;stroke-linejoin:round;stroke-miterlimit:4;stroke-dasharray:none;stroke-opacity:1"
             d="m 131.37891,289.26953 c -1.62892,-5.29676 -3.18248,-10.61146 -4.38672,-16.00976 -1.4628,-6.55735 -2.61303,-13.18932 -3.44922,-19.89649 -0.83619,-6.70716 -1.35879,-13.49067 -1.56836,-20.34766 -0.0198,-0.6466 0.0435,-1.313 0.0293,-1.96093 l -35.283207,25.95312 c 4.813201,19.23064 13.704847,34.72272 32.126957,41.47852 z"
             transform="scale(0.26458333)"
             inkscape:connector-curvature="0" />
          <path
             id="path944"
             style="fill:#e0362b;fill-opacity:1;stroke:#f6f8fa;stroke-width:5.99811;stroke-linecap:round;stroke-linejoin:round;stroke-miterlimit:4;stroke-dasharray:none;stroke-opacity:1"
             d="m 153.89844,272.70312 c -0.30625,-1.11236 -0.67929,-2.22248 -0.95899,-3.33593 -0.83808,-3.3364 -1.55875,-6.6776 -2.16601,-10.02344 -0.60726,-3.34584 -1.10244,-6.69596 -1.49024,-10.05078 -0.38779,-3.35482 -0.66796,-6.71284 -0.84765,-10.07617 -0.1797,-3.36334 -0.25924,-6.73213 -0.24219,-10.10352 0.017,-3.37138 0.12961,-6.74603 0.33203,-10.125 0.15844,-2.64477 0.41584,-5.29419 0.68164,-7.94336 l -27.20312,20.00977 c 0.0142,0.64793 -0.0491,1.31433 -0.0293,1.96093 0.20957,6.85699 0.73217,13.6405 1.56836,20.34766 0.83619,6.70717 1.98642,13.33914 3.44922,19.89649 1.20424,5.3983 2.7578,10.713 4.38672,16.00976 z"
             transform="scale(0.26458333)"
             inkscape:connector-curvature="0" />
          <path
             id="path946"
             style="fill:#e0362b;fill-opacity:1;stroke:#f6f8fa;stroke-width:5.99811;stroke-linecap:round;stroke-linejoin:round;stroke-miterlimit:4;stroke-dasharray:none;stroke-opacity:1"
             d="m 178.79297,189.2832 -29.58594,21.76172 c -0.2658,2.64917 -0.5232,5.29859 -0.68164,7.94336 -0.20242,3.37897 -0.31499,6.75362 -0.33203,10.125 -0.0171,3.37139 0.0625,6.74018 0.24219,10.10352 0.17969,3.36333 0.45986,6.72135 0.84765,10.07617 0.3878,3.35482 0.88298,6.70494 1.49024,10.05078 0.60726,3.34584 1.32793,6.68704 2.16601,10.02344 0.2797,1.11345 0.65274,2.22357 0.95899,3.33593 l 34.07812,-25.0664 c -1.54616,-5.08546 -3.05368,-10.18047 -4.20898,-15.35938 -1.4628,-6.55734 -2.61108,-13.18932 -3.44727,-19.89648 -0.83618,-6.70716 -1.35878,-13.48872 -1.56836,-20.3457 -0.0277,-0.90736 0.0578,-1.84198 0.041,-2.75196 z"
             transform="scale(0.26458333)"
             inkscape:connector-curvature="0" />
          <path
             id="path948"
             style="fill:#e0362b;fill-opacity:1;stroke:#f6f8fa;stroke-width:5.99811;stroke-linecap:round;stroke-linejoin:round;stroke-miterlimit:4;stroke-dasharray:none;stroke-opacity:1"
             d="m 210.48828,231.07812 c -0.24294,-0.89771 -0.54776,-1.79298 -0.77344,-2.6914 -0.83808,-3.3364 -1.55875,-6.6776 -2.16601,-10.02344 -0.60726,-3.34584 -1.10049,-6.69596 -1.48828,-10.05078 -0.3878,-3.35482 -0.66992,-6.71479 -0.84961,-10.07812 -0.1797,-3.36334 -0.25728,-6.73018 -0.24024,-10.10157 0.0171,-3.37138 0.12961,-6.74798 0.33203,-10.12695 0.17511,-2.92303 0.448,-5.84896 0.75391,-8.77734 l -27.26367,20.05468 c 0.0168,0.90998 -0.0687,1.8446 -0.041,2.75196 0.20958,6.85698 0.73218,13.63854 1.56836,20.3457 0.83619,6.70716 1.98447,13.33914 3.44727,19.89648 1.1553,5.17891 2.66282,10.27392 4.20898,15.35938 z"
             transform="scale(0.26458333)"
             inkscape:connector-curvature="0" />
          <path
             id="path950"
             style="fill:#e0362b;fill-opacity:1;stroke:#f6f8fa;stroke-width:5.99811;stroke-linecap:round;stroke-linejoin:round;stroke-miterlimit:4;stroke-dasharray:none;stroke-opacity:1"
             d="m 227.08008,153.28711 c -0.74995,0.71015 -1.45621,1.45849 -2.24805,2.13086 l -18.77539,13.81055 c -0.30591,2.92838 -0.5788,5.85431 -0.75391,8.77734 -0.20242,3.37897 -0.31498,6.75557 -0.33203,10.12695 -0.017,3.37139 0.0605,6.73823 0.24024,10.10157 0.17969,3.36333 0.46181,6.7233 0.84961,10.07812 0.38779,3.35482 0.88102,6.70494 1.48828,10.05078 0.60726,3.34584 1.32793,6.68704 2.16601,10.02344 0.22568,0.89842 0.5305,1.79369 0.77344,2.6914 l 42.26953,-31.09179 c -3.67091,-5.08139 -7.19842,-10.25456 -10.41992,-15.6211 -3.60523,-6.00576 -6.92833,-12.18984 -9.9707,-18.55273 -1.94194,-4.06143 -3.57449,-8.31846 -5.28711,-12.52539 z"
             transform="scale(0.26458333)"
             inkscape:connector-curvature="0" />
          <path
             id="path952"
             style="fill:#e0362b;fill-opacity:1;stroke:#f6f8fa;stroke-width:5.99811;stroke-linecap:round;stroke-linejoin:round;stroke-miterlimit:4;stroke-dasharray:none;stroke-opacity:1"
             d="m 272.71484,181.03125 c -0.0562,-0.0761 -0.12169,-0.14848 -0.17773,-0.22461 -2.15952,-2.934 -4.19895,-5.913 -6.125,-8.9375 -1.92605,-3.0245 -3.73982,-6.09432 -5.44336,-9.20508 -1.70354,-3.11076 -3.29708,-6.26426 -4.78906,-9.45703 -1.49198,-3.19277 -2.88246,-6.42478 -4.17383,-9.69531 -1.29137,-3.27053 -2.48422,-6.57783 -3.58594,-9.92188 -1.10171,-3.34405 -2.11214,-6.72534 -3.03515,-10.13867 -0.346,-1.27952 -0.62142,-2.58615 -0.94336,-3.875 -1.77692,12.84791 -7.87628,24.72927 -17.36133,33.71094 1.71262,4.20693 3.34517,8.46396 5.28711,12.52539 3.04237,6.36289 6.36547,12.54697 9.9707,18.55273 3.2215,5.36654 6.74901,10.53971 10.41992,15.6211 l 4.20117,-3.08985 c 5.85494,-4.75888 11.07172,-10.12064 15.75586,-15.86523 z"
             transform="scale(0.26458333)"
             inkscape:connector-curvature="0" />
          <path
             id="path954"
             style="fill:#e0362b;fill-opacity:1;stroke:#f6f8fa;stroke-width:5.99811;stroke-linecap:round;stroke-linejoin:round;stroke-miterlimit:4;stroke-dasharray:none;stroke-opacity:1"
             d="m 243.4082,98.759766 c 0.97613,4.185584 1.63673,8.493484 1.63672,12.978514 -1e-5,2.64388 -0.24593,5.25243 -0.60351,7.83789 0.32194,1.28885 0.59736,2.59548 0.94336,3.875 0.92301,3.41333 1.93344,6.79462 3.03515,10.13867 1.10172,3.34405 2.29457,6.65135 3.58594,9.92188 1.29137,3.27053 2.68185,6.50254 4.17383,9.69531 1.49198,3.19277 3.08552,6.34627 4.78906,9.45703 1.70354,3.11076 3.51731,6.18058 5.44336,9.20508 1.92605,3.0245 3.96548,6.0035 6.125,8.9375 0.056,0.0761 0.12154,0.14854 0.17773,0.22461 15.8273,-19.41043 24.76757,-43.79908 24.76758,-69.29297 1e-5,-2.92111 -0.14645,-5.8053 -0.37109,-8.66797 -5.71752,0.27516 -11.43157,0.4405 -17.14063,0.25 -6.71478,-0.22406 -13.42386,-0.77044 -20.12695,-1.63867 -5.48326,-0.71023 -10.96011,-1.780596 -16.43555,-2.921874 z"
             transform="scale(0.26458333)"
             inkscape:connector-curvature="0" />
          <path
             id="path956"
             style="fill:#e0362b;fill-opacity:1;stroke:#f6f8fa;stroke-width:5.99811;stroke-linecap:round;stroke-linejoin:round;stroke-miterlimit:4;stroke-dasharray:none;stroke-opacity:1"
             d="m 291.60156,76.982422 c -2.9854,0.153591 -5.96012,0.262053 -8.9082,0.242187 -3.43997,-0.02318 -6.85472,-0.161128 -10.24609,-0.410156 -3.39138,-0.249028 -6.76031,-0.608507 -10.10547,-1.072265 -3.34517,-0.463759 -6.6674,-1.031846 -9.96875,-1.699219 -3.30136,-0.667373 -6.58187,-1.435051 -9.8418,-2.294922 -3.25993,-0.859871 -6.4998,-1.812264 -9.7207,-2.853516 -3.2209,-1.041252 -6.42316,-2.171296 -9.60743,-3.382812 l -0.16796,1.291015 c 10.07583,7.909723 17.36849,19.073696 20.37304,31.957032 5.47544,1.141278 10.95229,2.211644 16.43555,2.921874 6.70309,0.86823 13.41217,1.41461 20.12695,1.63867 5.70906,0.1905 11.42311,0.0252 17.14063,-0.25 -0.7129,-9.084597 -2.71357,-17.766075 -5.50977,-26.087888 z"
             transform="scale(0.26458333)"
             inkscape:connector-curvature="0" />
          <path
             id="path958"
             style="fill:#e0362b;fill-opacity:1;stroke:#f6f8fa;stroke-width:5.99811;stroke-linecap:round;stroke-linejoin:round;stroke-miterlimit:4;stroke-dasharray:none;stroke-opacity:1"
             d="m 242.97266,17.019531 c -2.59594,4.608441 -5.22202,9.197198 -8.15235,13.589844 -3.72843,5.589037 -7.72632,11.004453 -11.99609,16.244141 -3.57955,4.392672 -7.45991,8.59114 -11.41992,12.738281 4.19606,1.907453 8.04746,4.397901 11.63086,7.210937 l 0.16796,-1.291015 c 3.18427,1.211516 6.38653,2.34156 9.60743,3.382812 3.2209,1.041252 6.46077,1.993645 9.7207,2.853516 3.25993,0.859871 6.54044,1.627549 9.8418,2.294922 3.30135,0.667373 6.62358,1.23546 9.96875,1.699219 3.34516,0.463758 6.71409,0.823237 10.10547,1.072265 3.39137,0.249028 6.80612,0.386976 10.24609,0.410156 2.94808,0.01987 5.9228,-0.0886 8.9082,-0.242187 -8.52228,-25.363308 -25.87774,-46.666253 -48.6289,-59.962891 z"
             transform="scale(0.26458333)"
             inkscape:connector-curvature="0" />
          <path
             id="path960"
             style="fill:#e0362b;fill-opacity:1;stroke:#f6f8fa;stroke-width:5.99811;stroke-linecap:round;stroke-linejoin:round;stroke-miterlimit:4;stroke-dasharray:none;stroke-opacity:1"
             d="M 218.75781,6.515625 C 208.91532,3.618354 198.52476,1.998204 187.74414,1.9980469 164.29625,1.9977712 141.46475,9.5078821 122.5957,23.427734 c 4.52706,17.15525 12.88348,32.248542 32.12891,41.478516 6.67686,-4.707778 14.27509,-7.791469 22.2168,-9.320312 1.25592,-1.012504 2.54436,-1.992938 3.77148,-3.033204 2.58207,-2.188905 5.10035,-4.440165 7.54883,-6.757812 2.44847,-2.317648 4.82807,-4.70197 7.13476,-7.15625 2.3067,-2.45428 4.54055,-4.979323 6.69727,-7.578125 2.15672,-2.598803 4.23582,-5.270269 6.23437,-8.021485 1.99856,-2.751215 3.91584,-5.580668 5.74805,-8.492187 1.63749,-2.602092 3.18321,-5.2951495 4.68164,-8.03125 z"
             transform="scale(0.26458333)"
             inkscape:connector-curvature="0" />
          <path
             id="path962"
             style="fill:#e0362b;fill-opacity:1;stroke:#f6f8fa;stroke-width:5.99811;stroke-linecap:round;stroke-linejoin:round;stroke-miterlimit:4;stroke-dasharray:none;stroke-opacity:1"
             d="m 218.75781,6.515625 c -1.49843,2.7361005 -3.04415,5.429158 -4.68164,8.03125 -1.83221,2.911519 -3.74949,5.740972 -5.74805,8.492187 -1.99855,2.751216 -4.07765,5.422682 -6.23437,8.021485 -2.15672,2.598802 -4.39057,5.123845 -6.69727,7.578125 -2.30669,2.45428 -4.68629,4.838602 -7.13476,7.15625 -2.44848,2.317647 -4.96676,4.568907 -7.54883,6.757812 -1.22712,1.040266 -2.51556,2.0207 -3.77148,3.033204 3.55151,-0.683696 7.14927,-1.150322 10.80273,-1.150391 8.44695,2.67e-4 16.44094,1.874526 23.66016,5.15625 3.96001,-4.147141 7.84037,-8.345609 11.41992,-12.738281 4.26977,-5.239688 8.26766,-10.655104 11.99609,-16.244141 2.93033,-4.392646 5.55641,-8.981403 8.15235,-13.589844 -7.55488,-4.415357 -15.64928,-7.982514 -24.21485,-10.503906 z"
             transform="scale(0.26458333)"
             inkscape:connector-curvature="0" />
        </g>
      </g>
    </g>
  </g>
</svg>
